<svg width="58" height="57" viewBox="0 0 58 57" fill="none" xmlns="http://www.w3.org/2000/svg">
<path opacity="0.3" d="M57.2444 28.4889C57.2444 44.1983 44.5094 56.9333 28.7999 56.9333C13.0905 56.9333 0.355499 44.1983 0.355499 28.4889C0.355499 12.7794 13.0905 0.0444336 28.7999 0.0444336C44.5094 0.0444336 57.2444 12.7794 57.2444 28.4889ZM8.11169 28.4889C8.11169 39.9147 17.3741 49.1771 28.7999 49.1771C40.2258 49.1771 49.4882 39.9147 49.4882 28.4889C49.4882 17.0631 40.2258 7.80062 28.7999 7.80062C17.3741 7.80062 8.11169 17.0631 8.11169 28.4889Z" fill="#2F2E30"/>
<circle cx="28.7999" cy="28.4889" r="20.6222" fill="black"/>
<g clip-path="url(#clip0_365_7091)">
<path d="M24.0592 32.0444C24.0592 30.7353 22.998 29.6741 21.6888 29.6741C20.3797 29.6741 19.3185 30.7353 19.3185 32.0444V34.4148C19.3185 35.7239 20.3797 36.7852 21.6888 36.7852C22.998 36.7852 24.0592 35.7239 24.0592 34.4148V32.0444Z" stroke="white" stroke-width="1.42222" stroke-linecap="round" stroke-linejoin="round"/>
<path d="M38.2814 32.0444C38.2814 30.7353 37.2202 29.6741 35.9111 29.6741C34.6019 29.6741 33.5407 30.7353 33.5407 32.0444V34.4148C33.5407 35.7239 34.6019 36.7852 35.9111 36.7852C37.2202 36.7852 38.2814 35.7239 38.2814 34.4148V32.0444Z" stroke="white" stroke-width="1.42222" stroke-linecap="round" stroke-linejoin="round"/>
<path d="M19.3185 32.0444V28.4889C19.3185 25.9742 20.3174 23.5626 22.0955 21.7844C23.8737 20.0063 26.2853 19.0074 28.7999 19.0074C31.3146 19.0074 33.7262 20.0063 35.5044 21.7844C37.2825 23.5626 38.2814 25.9742 38.2814 28.4889V32.0444" stroke="white" stroke-width="1.42222" stroke-linecap="round" stroke-linejoin="round"/>
<path d="M35.9111 36.7852C35.9111 37.7282 35.1618 38.6326 33.8283 39.2994C32.4947 39.9662 30.6859 40.3408 28.7999 40.3408" stroke="white" stroke-width="1.42222" stroke-linecap="round" stroke-linejoin="round"/>
</g>
<defs>
<clipPath id="clip0_365_7091">
<rect width="28.4444" height="28.4444" fill="white" transform="translate(14.5777 14.2667)"/>
</clipPath>
</defs>
</svg>
