<svg width="58" height="57" viewBox="0 0 58 57" fill="none" xmlns="http://www.w3.org/2000/svg">
<path opacity="0.3" d="M57.0111 28.4889C57.0111 44.1983 44.2761 56.9333 28.5666 56.9333C12.8572 56.9333 0.122192 44.1983 0.122192 28.4889C0.122192 12.7794 12.8572 0.0444336 28.5666 0.0444336C44.2761 0.0444336 57.0111 12.7794 57.0111 28.4889ZM7.87838 28.4889C7.87838 39.9147 17.1408 49.1771 28.5666 49.1771C39.9924 49.1771 49.2549 39.9147 49.2549 28.4889C49.2549 17.0631 39.9924 7.80062 28.5666 7.80062C17.1408 7.80062 7.87838 17.0631 7.87838 28.4889Z" fill="#2F2E30"/>
<circle cx="28.5666" cy="28.4889" r="20.6222" fill="black"/>
<g clip-path="url(#clip0_365_7074)">
<path d="M22.6407 36.7852C23.9498 36.7852 25.0111 35.7239 25.0111 34.4148C25.0111 33.1057 23.9498 32.0444 22.6407 32.0444C21.3316 32.0444 20.2704 33.1057 20.2704 34.4148C20.2704 35.7239 21.3316 36.7852 22.6407 36.7852Z" stroke="#FAFAFA" stroke-width="1.42222" stroke-linecap="round" stroke-linejoin="round"/>
<path d="M34.4926 36.7852C35.8017 36.7852 36.8629 35.7239 36.8629 34.4148C36.8629 33.1057 35.8017 32.0444 34.4926 32.0444C33.1834 32.0444 32.1222 33.1057 32.1222 34.4148C32.1222 35.7239 33.1834 36.7852 34.4926 36.7852Z" stroke="#FAFAFA" stroke-width="1.42222" stroke-linecap="round" stroke-linejoin="round"/>
<path d="M20.2703 34.4149H19.3222C18.5367 34.4149 17.8999 33.7782 17.8999 32.9927V29.6742M16.7148 20.1927H28.3296C29.115 20.1927 29.7518 20.8294 29.7518 21.6149V34.4149M25.011 34.4149H32.1222M36.8629 34.4149H37.8111C38.5965 34.4149 39.2333 33.7782 39.2333 32.9927V27.3038M39.2333 27.3038H29.7518M39.2333 27.3038L36.092 22.0684C35.835 21.64 35.372 21.3779 34.8725 21.3779H29.7518" stroke="#FAFAFA" stroke-width="1.42222" stroke-linecap="round" stroke-linejoin="round"/>
<path d="M20.0333 34.1778H19.0852C18.2997 34.1778 17.6629 33.541 17.6629 32.7556V29.437M16.4778 19.9556H28.0926C28.878 19.9556 29.5148 20.5923 29.5148 21.3778V34.1778M25.0111 34.1778H31.8852M37.1 34.1778H37.5741C38.3595 34.1778 38.9963 33.541 38.9963 32.7556V27.0667M38.9963 27.0667H29.5148M38.9963 27.0667L35.855 21.8312C35.598 21.4029 35.135 21.1408 34.6355 21.1408H29.5148" stroke="#FAFAFA" stroke-width="1.42222" stroke-linecap="round" stroke-linejoin="round"/>
<path d="M17.9 22.6707H22.6407" stroke="#FAFAFA" stroke-width="1.42222" stroke-linecap="round" stroke-linejoin="round"/>
<path d="M15.6373 25.2565H20.3781" stroke="#FAFAFA" stroke-width="1.42222" stroke-linecap="round" stroke-linejoin="round"/>
<path d="M17.9 27.8424H22.6407" stroke="#FAFAFA" stroke-width="1.42222" stroke-linecap="round" stroke-linejoin="round"/>
</g>
<defs>
<clipPath id="clip0_365_7074">
<rect width="28.4444" height="28.4444" fill="white" transform="translate(14.3444 14.2667)"/>
</clipPath>
</defs>
</svg>
