<svg width="57" height="57" viewBox="0 0 57 57" fill="none" xmlns="http://www.w3.org/2000/svg">
<path opacity="0.3" d="M56.9778 28.4889C56.9778 44.1983 44.2428 56.9333 28.5333 56.9333C12.8239 56.9333 0.0888824 44.1983 0.0888824 28.4889C0.0888824 12.7794 12.8239 0.0444336 28.5333 0.0444336C44.2428 0.0444336 56.9778 12.7794 56.9778 28.4889ZM7.84507 28.4889C7.84507 39.9147 17.1075 49.1771 28.5333 49.1771C39.9591 49.1771 49.2216 39.9147 49.2216 28.4889C49.2216 17.0631 39.9591 7.80062 28.5333 7.80062C17.1075 7.80062 7.84507 17.0631 7.84507 28.4889Z" fill="#2F2E30"/>
<circle cx="28.5333" cy="28.4889" r="20.6222" fill="black"/>
<path d="M20.0705 36.0262L20.0703 36.0261C19.4497 35.5633 18.8804 34.8325 18.4659 34.0065C18.0515 33.1804 17.8074 32.2899 17.8074 31.523V22.7052C17.8074 21.0275 19.0553 19.2173 20.6337 18.6295L20.6344 18.6292L26.5482 16.413C26.5482 16.413 26.5483 16.413 26.5483 16.413C27.0841 16.2128 27.7949 16.1067 28.5215 16.1067C29.2481 16.1067 29.9588 16.2128 30.4946 16.413C30.4947 16.413 30.4947 16.413 30.4948 16.413L36.4085 18.6292L36.4092 18.6295C37.9877 19.2173 39.2355 21.0275 39.2355 22.7052V31.5111C39.2355 32.2842 38.9914 33.1746 38.5771 33.9988C38.1629 34.823 37.5936 35.5512 36.9726 36.0142L36.9725 36.0143L31.8762 39.8188L31.8762 39.8187L31.8718 39.8221C30.9596 40.5255 29.7593 40.8859 28.5333 40.8859C27.3084 40.8859 26.1052 40.5259 25.1663 39.8303C25.1661 39.8302 25.166 39.83 25.1658 39.8299L20.0705 36.0262ZM26.9275 17.418L26.9271 17.4182L21.013 19.6344L21.0125 19.6346C20.424 19.8562 19.8969 20.3272 19.5193 20.8734C19.1417 21.4198 18.8859 22.0817 18.8859 22.717V31.523C18.8859 32.159 19.1068 32.8902 19.4317 33.5386C19.7566 34.1868 20.2085 34.7981 20.7117 35.1738L20.7117 35.1738L25.8078 38.9781C26.563 39.5428 27.5578 39.8133 28.5348 39.8133C29.5119 39.8133 30.509 39.5428 31.2695 38.9789L31.2705 38.9782L36.3668 35.1738L36.3674 35.1733C36.8757 34.7921 37.3275 34.1814 37.6513 33.5338C37.9751 32.8862 38.1926 32.1583 38.1926 31.523V22.7052C38.1926 22.075 37.9363 21.4161 37.5591 20.8704C37.1819 20.3246 36.6558 19.8518 36.0694 19.6241L36.0694 19.6241L36.0655 19.6226L30.1514 17.4063L30.1514 17.4062L30.145 17.404C29.6912 17.2438 29.1023 17.1703 28.5338 17.1718C27.9659 17.1734 27.3779 17.2499 26.9275 17.418Z" fill="#FAFAFA" stroke="#FAFAFA" stroke-width="0.711111"/>
<path d="M26.6938 29.238L26.9452 29.4894L27.1966 29.238L31.6647 24.7699C31.8696 24.565 32.2134 24.565 32.4182 24.7699C32.6231 24.9747 32.6231 25.3185 32.4182 25.5233L27.3219 30.6196C27.2143 30.7272 27.0811 30.7762 26.9452 30.7762C26.8092 30.7762 26.676 30.7272 26.5684 30.6196L24.6603 28.7115C24.4554 28.5066 24.4554 28.1629 24.6603 27.958C24.8651 27.7532 25.2089 27.7532 25.4138 27.958L26.6938 29.238Z" fill="#FAFAFA" stroke="#FAFAFA" stroke-width="0.711111"/>
</svg>
