<svg width="18" height="18" viewBox="0 0 18 18" fill="none" xmlns="http://www.w3.org/2000/svg">
<path d="M15.9606 8.03969C16.2976 8.48058 16.2976 9.07578 15.9606 9.51596C14.8989 10.9019 12.3517 13.7556 9.37779 13.7556C6.40393 13.7556 3.85673 10.9019 2.79504 9.51596C2.63104 9.30485 2.54202 9.04515 2.54202 8.77783C2.54202 8.51051 2.63104 8.2508 2.79504 8.03969C3.85673 6.65374 6.40393 3.80005 9.37779 3.80005C12.3517 3.80005 14.8989 6.65374 15.9606 8.03969V8.03969Z" stroke="black" stroke-width="1.06667" stroke-linecap="round" stroke-linejoin="round"/>
<path d="M9.37778 10.911C10.556 10.911 11.5111 9.95583 11.5111 8.77762C11.5111 7.59941 10.556 6.64429 9.37778 6.64429C8.19957 6.64429 7.24445 7.59941 7.24445 8.77762C7.24445 9.95583 8.19957 10.911 9.37778 10.911Z" stroke="black" stroke-width="1.06667" stroke-linecap="round" stroke-linejoin="round"/>
</svg>
