<svg width="30" height="29" viewBox="0 0 30 29" fill="none" xmlns="http://www.w3.org/2000/svg">
<g clip-path="url(#clip0_270_6845)">
<path d="M8.94068 23.063C10.2498 23.063 11.3111 22.0018 11.3111 20.6926C11.3111 19.3835 10.2498 18.3223 8.94068 18.3223C7.63156 18.3223 6.57031 19.3835 6.57031 20.6926C6.57031 22.0018 7.63156 23.063 8.94068 23.063Z" stroke="black" stroke-width="1.42222" stroke-linecap="round" stroke-linejoin="round"/>
<path d="M20.7922 23.063C22.1014 23.063 23.1626 22.0018 23.1626 20.6926C23.1626 19.3835 22.1014 18.3223 20.7922 18.3223C19.4831 18.3223 18.4219 19.3835 18.4219 20.6926C18.4219 22.0018 19.4831 23.063 20.7922 23.063Z" stroke="black" stroke-width="1.42222" stroke-linecap="round" stroke-linejoin="round"/>
<path d="M6.5702 20.6927H5.62206C4.83659 20.6927 4.19983 20.0559 4.19983 19.2705V15.9519M3.01465 6.47046H14.6295C15.4149 6.47046 16.0517 7.10721 16.0517 7.89268V20.6927M11.3109 20.6927H18.4221M23.1628 20.6927H24.1109C24.8964 20.6927 25.5332 20.0559 25.5332 19.2705V13.5816M25.5332 13.5816H16.0517M25.5332 13.5816L22.3919 8.34614C22.1349 7.91776 21.6719 7.65564 21.1724 7.65564H16.0517" stroke="black" stroke-width="1.42222" stroke-linecap="round" stroke-linejoin="round"/>
<path d="M6.33388 20.4556H5.38573C4.60026 20.4556 3.96351 19.8189 3.96351 19.0334V15.7149M2.77832 6.2334H14.3931C15.1786 6.2334 15.8154 6.87015 15.8154 7.65562V20.4556M11.3117 20.4556H18.1857M23.4005 20.4556H23.8746C24.6601 20.4556 25.2968 19.8189 25.2968 19.0334V13.3445M25.2968 13.3445H15.8154M25.2968 13.3445L22.1556 8.10908C21.8986 7.6807 21.4356 7.41858 20.936 7.41858H15.8154" stroke="black" stroke-width="1.42222" stroke-linecap="round" stroke-linejoin="round"/>
<path d="M4.2002 8.94849H8.94094" stroke="black" stroke-width="1.42222" stroke-linecap="round" stroke-linejoin="round"/>
<path d="M1.9375 11.5344H6.67824" stroke="black" stroke-width="1.42222" stroke-linecap="round" stroke-linejoin="round"/>
<path d="M4.2002 14.1201H8.94094" stroke="black" stroke-width="1.42222" stroke-linecap="round" stroke-linejoin="round"/>
</g>
<defs>
<clipPath id="clip0_270_6845">
<rect width="28.4444" height="28.4444" fill="white" transform="translate(0.644531 0.544434)"/>
</clipPath>
</defs>
</svg>
