<svg width="30" height="30" viewBox="0 0 30 30" fill="none" xmlns="http://www.w3.org/2000/svg">
<g clip-path="url(#clip0_270_6850)">
<path d="M24.3487 13.8924C24.0589 11.8067 23.0913 9.87418 21.5951 8.3925C20.0989 6.91082 18.157 5.96219 16.0686 5.69272C13.9802 5.42324 11.8611 5.84789 10.0378 6.90124C8.21452 7.95459 6.78811 9.57821 5.97833 11.522M5.38574 6.78125V11.522H10.1265" stroke="black" stroke-width="1.42222" stroke-linecap="round" stroke-linejoin="round"/>
<path d="M5.38574 16.2629C5.67559 18.3486 6.64314 20.2811 8.13936 21.7628C9.63557 23.2445 11.5774 24.1931 13.6658 24.4626C15.7542 24.7321 17.8733 24.3074 19.6966 23.2541C21.5199 22.2007 22.9463 20.5771 23.7561 18.6333M24.3487 23.3741V18.6333H19.608" stroke="black" stroke-width="1.42222" stroke-linecap="round" stroke-linejoin="round"/>
</g>
<defs>
<clipPath id="clip0_270_6850">
<rect width="28.4444" height="28.4444" fill="white" transform="translate(0.644531 0.855469)"/>
</clipPath>
</defs>
</svg>
