<svg width="11" height="11" viewBox="0 0 11 11" fill="none" xmlns="http://www.w3.org/2000/svg">
<path d="M10.412 5.36654C11.1734 4.79061 10.7661 3.57698 9.81141 3.57698H8.084C7.64744 3.57698 7.26181 3.29256 7.13286 2.87548L6.61791 1.20983C6.32875 0.274498 5.0048 0.274497 4.71564 1.20983L4.20069 2.87548C4.07174 3.29256 3.68611 3.57698 3.24955 3.57698H1.49228C0.540673 3.57698 0.131428 4.78414 0.886841 5.36284L2.39189 6.51582C2.72196 6.76868 2.86012 7.20003 2.73839 7.59759L2.19155 9.38359C1.90796 10.3098 2.97996 11.0544 3.74891 10.4654L5.06134 9.45995C5.41857 9.18628 5.91498 9.18628 6.27221 9.45994L7.57304 10.4565C8.3431 11.0464 9.41613 10.2989 9.12962 9.37213L8.57519 7.57878C8.45142 7.17846 8.59156 6.7435 8.92575 6.49072L10.412 5.36654Z" fill="#FFAD33"/>
</svg>
